HIERARCHY
ROOT root
{
	OFFSET	0	13.1	24.9
	CHANNELS 6  Xposition Yposition Zposition Xrotation Yrotation Zrotation
	JOINT spine_1
	{
		OFFSET	0	9.99999	0
		CHANNELS 3  Xrotation Yrotation Zrotation
		JOINT spine_2
		{
			OFFSET	0	112	-10
			CHANNELS 3  Xrotation Yrotation Zrotation
			JOINT spine_3
			{
				OFFSET	0	206.5	19.3
				CHANNELS 3  Xrotation Yrotation Zrotation
				JOINT spine_4
				{
					OFFSET	0	110.4	14.6
					CHANNELS 3  Xrotation Yrotation Zrotation
					JOINT neck_1
					{
						OFFSET	0	71.8	-50.3
						CHANNELS 3  Xrotation Yrotation Zrotation
						JOINT neck_2
						{
							OFFSET	0	86.2	-25.8
							CHANNELS 3  Xrotation Yrotation Zrotation
							JOINT head_ee
							{
								OFFSET	0	179.8	-8.7
								CHANNELS 3  Xrotation Yrotation Zrotation
								End Site
								{
									OFFSET	1	0	0
								}
							}
						}
					}
					JOINT left_clavicle
					{
						OFFSET	-43.2	22.4	-70.8
						CHANNELS 3  Xrotation Yrotation Zrotation
						JOINT left_shoulder
						{
							OFFSET	-93.9	-5.79999	48.7
							CHANNELS 3  Xrotation Yrotation Zrotation
							JOINT left_elbow
							{
								OFFSET	-291.4	-30.8	15.2
								CHANNELS 3  Xrotation Yrotation Zrotation
								JOINT left_lowarm_twist
								{
									OFFSET	-110.7	-3.89999	13.6
									CHANNELS 3  Xrotation Yrotation Zrotation
									JOINT left_hand
									{
										OFFSET	-110.7	-3.89999	13.6
										CHANNELS 3  Xrotation Yrotation Zrotation
										JOINT left_ee
										{
											OFFSET	-80.8	-5.10001	12.1
											CHANNELS 3  Xrotation Yrotation Zrotation
											End Site
											{
												OFFSET	1	0	0
											}
										}
									}
								}
							}
						}
					}
					JOINT right_clavicle
					{
						OFFSET	43.2	22.4	-70.8
						CHANNELS 3  Xrotation Yrotation Zrotation
						JOINT right_shoulder
						{
							OFFSET	93.9	-5.79999	48.7
							CHANNELS 3  Xrotation Yrotation Zrotation
							JOINT right_elbow
							{
								OFFSET	291.4	-30.8	15.2
								CHANNELS 3  Xrotation Yrotation Zrotation
								JOINT right_lowarm_twist
								{
									OFFSET	110.7	-3.89999	13.6
									CHANNELS 3  Xrotation Yrotation Zrotation
									JOINT right_hand
									{
										OFFSET	110.7	-3.89999	13.6
										CHANNELS 3  Xrotation Yrotation Zrotation
										JOINT right_ee
										{
											OFFSET	80.8	-5.10001	12.1
											CHANNELS 3  Xrotation Yrotation Zrotation
											End Site
											{
												OFFSET	1	0	0
											}
										}
									}
								}
							}
						}
					}
				}
			}
		}
	}
	JOINT left_hip
	{
		OFFSET	-82.8	-127.5	0.300001
		CHANNELS 3  Xrotation Yrotation Zrotation
		JOINT left_knee
		{
			OFFSET	-28.2	-396.7	2.2
			CHANNELS 3  Xrotation Yrotation Zrotation
			JOINT left_ankle
			{
				OFFSET	-11.7	-411.3	35.4
				CHANNELS 3  Xrotation Yrotation Zrotation
				JOINT left_toes
				{
					OFFSET	0	-60	-88.6
					CHANNELS 3  Xrotation Yrotation Zrotation
					JOINT left_foot_ee
					{
						OFFSET	-22.5	-16.5	-42.2
						CHANNELS 3  Xrotation Yrotation Zrotation
						End Site
						{
							OFFSET	1	0	0
						}
					}
				}
			}
		}
	}
	JOINT right_hip
	{
		OFFSET	82.8	-127.5	0.300001
		CHANNELS 3  Xrotation Yrotation Zrotation
		JOINT right_knee
		{
			OFFSET	28.2	-396.7	2.2
			CHANNELS 3  Xrotation Yrotation Zrotation
			JOINT right_ankle
			{
				OFFSET	11.7	-411.3	35.4
				CHANNELS 3  Xrotation Yrotation Zrotation
				JOINT right_toes
				{
					OFFSET	0	-60	-88.6
					CHANNELS 3  Xrotation Yrotation Zrotation
					JOINT right_foot_ee
					{
						OFFSET	22.5	-16.5	-42.2
						CHANNELS 3  Xrotation Yrotation Zrotation
						End Site
						{
							OFFSET	1	0	0
						}
					}
				}
			}
		}
	}
}
MOTION
Frames: 10
Frame Time: 0.02
3177.02 653.055 -1669.29 -31.5065717402 71.8079082966 32.6188568628 4.2475 0.461256 -0.567405 4.24754 0.496426 -0.536905 4.24286 0.565445 -0.463657 4.24289 0.485124 -0.547139 -26.1216 10.3904 4.72213 -26.7837 18.115 9.97139 -0.0 0.0 -0.0 1.35868 23.6738 4.58917 -38.8565 0.400173 70.8296 0.581829 -16.0782 0.0821766 -66.8743 -6.14792 5.26327 1.63291 4.47983 12.7337 -0.0 0.0 -0.0 13.1664 25.7467 -26.0918 4.88562 11.6361 -59.5312 3.3906 59.2173 -1.92719 83.2474 4.21792 8.78212 2.45793 -27.9921 -25.2831 0.0 0.0 0.0 36.9615 2.58511 -11.4429 2.43585 -0.107945 -0.358154 -13.1792 5.469 1.97536 -7.70336 0.0 0.0 -0.0 0.0 -0.0 -9.16405 6.55796 5.12161 -13.8054 -0.317993 -2.08963 38.2613 13.9164 4.97569 -7.98354 0.0 0.0 0.0 0.0 0.0 
3113.09334863 658.822 -1650.33071614 -33.5522263063 70.370703985 34.9129144406 4.23451 0.4006 -0.46396 4.23452 0.42931 -0.437529 4.23123 0.485391 -0.374345 4.23128 0.42018 -0.446305 -21.3389 10.7098 4.8111 -21.8155 18.3414 9.27649 -0.0 0.0 -0.0 2.13888 24.0668 5.67352 -35.9864 -1.47162 68.4912 0.66075 -18.1242 0.105388 -66.965 -6.15946 5.26471 2.0262 1.77648 14.3694 -0.0 0.0 -0.0 13.0774 25.7548 -25.8847 2.10261 12.7232 -57.9794 3.45607 59.6963 -1.98357 82.8419 4.17004 8.76178 2.08251 -27.5318 -22.8862 0.0 0.0 0.0 36.8553 2.13167 -10.7519 -3.65599 0.133168 0.545182 -2.57145 6.84753 0.378647 -4.89311 0.0 0.0 -0.0 0.0 -0.0 -9.48508 6.88109 6.98621 -13.4383 -0.316093 -2.03335 36.0734 9.7393 4.66306 -10.7222 0.0 0.0 0.0 0.0 0.0 
3096.80360735 661.447 -1644.52043501 -34.2891209642 70.1266381094 35.6422755657 4.33222 0.288274 -0.40472 4.33226 0.313443 -0.385556 4.33013 0.36289 -0.339427 4.33009 0.30473 -0.392479 -20.35 10.5809 4.86946 -20.7636 17.9716 9.08116 -0.0 0.0 -0.0 2.16674 24.0935 5.71252 -34.3543 -1.89591 67.905 0.679499 -18.6035 0.111295 -66.1543 -6.05653 5.2512 2.2903 -1.49206 14.8926 -0.0 0.0 -0.0 13.1312 25.6939 -26.0164 0.111535 12.614 -58.1024 3.43258 59.526 -1.96331 84.8313 4.40633 8.85832 2.26493 -28.7722 -24.2608 0.0 0.0 0.0 37.9717 1.27929 -10.5209 -8.28777 0.251477 1.24596 1.15433 6.5905 -0.168533 -4.20134 0.0 0.0 -0.0 0.0 -0.0 -9.30176 7.34612 8.43801 -13.5566 -0.316745 -2.05149 33.0427 10.5827 4.38115 -10.4141 0.0 0.0 0.0 0.0 0.0 
3096.97357396 661.447 -1643.97655142 -34.9053796525 70.4467612921 36.2968969618 4.33222 0.288274 -0.40472 4.33226 0.313443 -0.385556 4.33013 0.36289 -0.339427 4.33009 0.30473 -0.392479 -20.35 10.5809 4.86946 -20.7636 17.9716 9.08116 -0.0 0.0 -0.0 2.16674 24.0935 5.71252 -34.3543 -1.89591 67.905 0.679499 -18.6035 0.111295 -66.1543 -6.05653 5.2512 2.2903 -1.49206 14.8926 -0.0 0.0 -0.0 13.1312 25.6939 -26.0164 0.111535 12.614 -58.1024 3.43258 59.526 -1.96331 84.8313 4.40633 8.85832 2.26493 -28.7722 -24.2608 0.0 0.0 0.0 37.9717 1.27929 -10.5209 -8.28777 0.251477 1.24596 1.15433 6.5905 -0.168533 -4.20134 0.0 0.0 -0.0 0.0 -0.0 -9.30176 7.34612 8.43801 -13.5566 -0.316745 -2.05149 33.0427 10.5827 4.38115 -10.4141 0.0 0.0 0.0 0.0 0.0 
3054.55892425 662.817 -1636.82669415 -31.2551675963 70.607980177 33.3414818624 4.16999 0.100302 -0.360663 4.17005 0.123048 -0.353549 4.16925 0.170845 -0.333092 4.16912 0.116096 -0.355893 -22.2848 9.82572 3.91622 -22.7475 17.1326 8.20957 -0.0 0.0 -0.0 0.656561 24.4163 3.6979 -31.2606 -4.21953 69.4397 0.894378 -23.8954 0.189256 -66.7897 -6.13718 5.26191 2.9404 -3.97641 18.4294 -0.0 0.0 -0.0 12.8443 23.7274 -25.5641 -2.20376 12.3287 -59.9628 3.22242 57.922 -1.78368 81.1563 3.97251 8.6736 1.5701 -29.8613 -20.4016 0.0 0.0 0.0 34.5775 1.15098 -9.83068 -17.1777 0.31856 2.60697 19.9061 6.05783 -2.71952 -4.12763 0.0 0.0 -0.0 0.0 -0.0 -7.74653 8.19845 7.50499 -22.5664 -0.256333 -3.43117 34.2688 4.9938 4.40221 -10.8812 0.0 0.0 0.0 0.0 0.0 
3020.72296391 670.615 -1631.64489659 -29.0398731622 71.7926452485 30.775009188 4.04081 0.0157793 0.00253267 4.04081 0.0155861 0.00353161 4.04081 0.0149338 0.00569036 4.04081 0.0156451 0.00326043 -24.677 8.45559 3.84216 -25.065 14.6701 7.84572 -0.0 0.0 -0.0 0.0563648 24.0378 2.85313 -28.7114 -6.72787 70.6549 1.07236 -27.9772 0.267149 -66.9497 -6.15751 5.26447 3.22678 -6.10658 19.5539 -0.0 0.0 -0.0 12.424 22.8069 -24.6814 -5.1363 11.8468 -61.474 2.69496 53.1551 -1.3484 80.0284 3.84182 8.61137 1.36487 -29.559 -19.1478 0.0 0.0 0.0 31.342 1.27884 -8.90753 -21.0715 0.281365 3.20314 27.7081 4.7156 -3.63969 -2.50828 0.0 0.0 -0.0 0.0 -0.0 -5.83334 9.93467 7.93245 -29.4155 -0.0660107 -4.46442 34.6291 -0.399763 4.38028 -12.7876 0.0 0.0 0.0 0.0 0.0 
3020.70971307 670.615 -1631.69995476 -29.0101178008 71.7749974951 30.7436839244 4.04081 0.0157793 0.00253267 4.04081 0.0155861 0.00353161 4.04081 0.0149338 0.00569036 4.04081 0.0156451 0.00326043 -24.677 8.45559 3.84216 -25.065 14.6701 7.84572 -0.0 0.0 -0.0 0.0563648 24.0378 2.85313 -28.7114 -6.72787 70.6549 1.07236 -27.9772 0.267149 -66.9497 -6.15751 5.26447 3.22678 -6.10658 19.5539 -0.0 0.0 -0.0 12.424 22.8069 -24.6814 -5.1363 11.8468 -61.474 2.69496 53.1551 -1.3484 80.0284 3.84182 8.61137 1.36487 -29.559 -19.1478 0.0 0.0 0.0 31.342 1.27884 -8.90753 -21.0715 0.281365 3.20314 27.7081 4.7156 -3.63969 -2.50828 0.0 0.0 -0.0 0.0 -0.0 -5.83334 9.93467 7.93245 -29.4155 -0.0660107 -4.46442 34.6291 -0.399763 4.38028 -12.7876 0.0 0.0 0.0 0.0 0.0 
2993.05227579 680.68 -1631.32329159 -28.7675147442 72.5416137249 30.7490297002 4.10275 -0.106728 -0.0758371 4.10275 -0.101686 -0.0824748 4.10289 -0.0891687 -0.0958704 4.1029 -0.103191 -0.0805847 -26.6711 8.4099 4.63366 -27.0728 14.3739 8.86508 -0.0 0.0 -0.0 -1.63599 24.1702 0.587545 -27.4342 -8.88408 72.8765 1.13594 -29.3661 0.297659 -66.5775 -6.11024 5.25843 3.48145 -9.24993 19.962 -0.0 0.0 -0.0 12.1426 20.9166 -24.1935 -8.12073 11.3145 -63.0765 2.50205 51.0948 -1.1961 80.6421 3.91278 8.64555 1.77036 -29.8736 -21.564 0.0 0.0 0.0 27.6431 1.16326 -8.25814 -17.8362 0.315118 2.70795 22.7788 0.620403 -3.08743 -4.82745 0.0 0.0 -0.0 0.0 -0.0 -4.79705 10.5856 7.63349 -31.9422 0.035211 -4.83893 34.9806 -6.57476 4.3972 -13.9183 0.0 0.0 0.0 0.0 0.0 
2965.6420499 696.575 -1621.80015467 -28.3210492056 74.0183160759 29.116082771 3.64211 -0.00621607 0.209654 3.64214 -0.0195443 0.208834 3.64206 -0.0501641 0.203659 3.642 -0.0173705 0.209026 -28.8891 7.38882 6.15082 -29.141 12.0033 10.0233 -0.0 0.0 -0.0 -5.88199 23.6835 -5.33111 -19.3067 -16.2072 82.085 1.29865 -32.7523 0.381642 -67.705 -6.25353 5.27576 3.82188 -9.38935 22.3551 -0.0 0.0 -0.0 11.9704 19.6121 -23.8932 -10.8317 10.0146 -63.2995 2.07552 45.7898 -0.876597 79.6213 3.79495 8.58828 1.24237 -29.3746 -18.3996 0.0 0.0 0.0 23.9381 0.214143 -5.74091 -16.6561 0.320463 2.52696 17.4857 -2.21494 -2.44813 -4.64913 0.0 0.0 -0.0 0.0 -0.0 1.21919 13.9745 7.07898 -44.8827 0.806255 -6.66786 38.5775 -18.2239 4.85759 -16.9723 0.0 0.0 0.0 0.0 0.0 
2965.60574189 696.575 -1621.96205193 -28.2485413509 73.9796753349 29.0406525167 3.64211 -0.00621607 0.209654 3.64214 -0.0195443 0.208834 3.64206 -0.0501641 0.203659 3.642 -0.0173705 0.209026 -28.8891 7.38882 6.15082 -29.141 12.0033 10.0233 -0.0 0.0 -0.0 -5.88199 23.6835 -5.33111 -19.3067 -16.2072 82.085 1.29865 -32.7523 0.381642 -67.705 -6.25353 5.27576 3.82188 -9.38935 22.3551 -0.0 0.0 -0.0 11.9704 19.6121 -23.8932 -10.8317 10.0146 -63.2995 2.07552 45.7898 -0.876597 79.6213 3.79495 8.58828 1.24237 -29.3746 -18.3996 0.0 0.0 0.0 23.9381 0.214143 -5.74091 -16.6561 0.320463 2.52696 17.4857 -2.21494 -2.44813 -4.64913 0.0 0.0 -0.0 0.0 -0.0 1.21919 13.9745 7.07898 -44.8827 0.806255 -6.66786 38.5775 -18.2239 4.85759 -16.9723 0.0 0.0 0.0 0.0 0.0 
